<?xml version="1.0" standalone="no"?>
<!DOCTYPE svg PUBLIC "-//W3C//DTD SVG 20010904//EN"
 "http://www.w3.org/TR/2001/REC-SVG-20010904/DTD/svg10.dtd">
<svg version="1.0" xmlns="http://www.w3.org/2000/svg"
 width="5070.000000pt" height="6452.000000pt" viewBox="0 0 5070.000000 6452.000000"
 preserveAspectRatio="xMidYMid meet">

<g transform="translate(0.000000,6452.000000) scale(0.100000,-0.100000)"
fill="#000000" stroke="none">
<path d="M6008 62763 c-2 -93 -2 -10637 0 -23433 l2 -23266 288 -141 c158 -77
2807 -1386 5887 -2908 3080 -1522 5753 -2843 5940 -2935 187 -92 513 -253 725
-357 516 -255 3454 -1707 5173 -2557 763 -377 1390 -686 1393 -686 4 0 504
246 1113 547 1393 688 1981 979 2336 1153 154 76 969 478 1810 895 842 416
1915 946 2385 1178 470 232 3309 1635 6310 3118 l5455 2695 3 23432 2 23432
-19410 0 -19409 0 -3 -167z m3362 -1128 l0 -645 -165 0 -165 0 0 645 0 645
165 0 165 0 0 -645z m32420 0 l0 -645 -160 0 -160 0 0 645 0 645 160 0 160 0
0 -645z m-32420 -2565 l0 -640 -165 0 -165 0 0 640 0 640 165 0 165 0 0 -640z
m32420 0 l0 -640 -160 0 -160 0 0 640 0 640 160 0 160 0 0 -640z m-32422
-2562 l-3 -643 -162 -3 -163 -2 0 645 0 645 165 0 165 0 -2 -642z m32425 52
c3 -324 3 -614 0 -645 l-6 -55 -158 0 -159 0 0 645 0 645 158 0 159 0 6 -590z
m-32423 -2615 l0 -645 -165 0 -165 0 0 645 0 645 165 0 165 0 0 -645z m32425
0 l0 -640 -162 -3 -163 -2 0 645 0 645 163 -2 162 -3 0 -640z m-32427 -2567
l-3 -643 -160 0 -160 0 -3 643 -2 642 165 0 165 0 -2 -642z m32427 620 c2 -13
3 -302 2 -643 l-2 -620 -162 -3 -163 -2 0 645 0 645 160 0 c157 0 160 0 165
-22z m-32425 -3183 l0 -645 -165 0 -165 0 0 645 0 645 165 0 165 0 0 -645z
m32428 130 c1 -280 -1 -570 -4 -642 l-6 -133 -159 0 -159 0 0 645 0 645 163
-2 162 -3 3 -510z m-32428 -2690 l0 -645 -165 0 -165 0 0 645 0 645 165 0 165
0 0 -645z m32427 -2 l1 -643 -164 0 -164 0 0 645 0 645 163 -2 162 -3 2 -642z
m-32429 -2560 l2 -643 -165 0 -165 0 0 638 c0 351 3 642 7 646 4 3 77 5 162 4
l156 -3 3 -642z m32428 0 l-1 -638 -162 -3 -163 -2 0 640 0 640 164 0 164 0
-2 -637z m-32426 -2568 l0 -645 -165 0 -165 0 0 645 0 645 165 0 165 0 0 -645z
m32420 0 l0 -645 -160 0 -160 0 0 645 0 645 160 0 160 0 0 -645z m-32422
-2562 l2 -643 -165 0 -165 0 0 645 0 645 163 -2 162 -3 3 -642z m32422 2 l0
-645 -160 0 -160 0 0 645 0 645 160 0 160 0 0 -645z m-32422 -2567 l-3 -643
-162 -3 -163 -2 0 645 0 645 165 0 165 0 -2 -642z m32422 -3 l0 -645 -160 0
-160 0 0 645 0 645 160 0 160 0 0 -645z m-32420 -2560 l0 -645 -165 0 -165 0
0 645 0 645 165 0 165 0 0 -645z m32420 0 l0 -645 -160 0 -160 0 0 645 0 645
160 0 160 0 0 -645z m-32420 -2565 l0 -640 -165 0 -165 0 0 640 0 640 165 0
165 0 0 -640z m32420 0 l0 -640 -160 0 -160 0 0 640 0 640 160 0 160 0 0 -640z
m-32422 -2562 l-3 -643 -162 -3 -163 -2 0 645 0 645 165 0 165 0 -2 -642z
m32422 -3 l0 -645 -160 0 -160 0 0 645 0 645 160 0 160 0 0 -645z m-32422
-2562 l2 -643 -165 0 -165 0 0 645 0 645 163 -2 162 -3 3 -642z m32422 2 l0
-645 -160 0 -160 0 0 645 0 645 160 0 160 0 0 -645z m-32420 -2565 l0 -640
-165 0 -165 0 0 640 0 640 165 0 165 0 0 -640z m32420 0 l0 -640 -160 0 -160
0 0 640 0 640 160 0 160 0 0 -640z m-32422 -2562 l-3 -643 -162 -3 -163 -2 0
645 0 645 165 0 165 0 -2 -642z m32422 -3 l0 -645 -160 0 -160 0 0 645 0 645
160 0 160 0 0 -645z m-32422 -2190 l2 -270 240 -120 c132 -66 240 -121 240
-122 0 -2 -32 -68 -72 -147 l-72 -144 -333 166 -333 167 0 373 0 372 163 -2
162 -3 3 -270z m32422 -101 l0 -375 -326 -160 c-179 -87 -329 -159 -333 -159
-11 0 -144 276 -138 287 3 5 112 61 241 123 l236 114 0 273 0 273 160 0 160 0
0 -376z m-30196 -1269 l576 -284 -71 -143 c-39 -79 -72 -144 -74 -146 -1 -1
-263 127 -583 284 l-581 287 72 143 c39 79 74 144 78 144 3 0 266 -128 583
-285z m28306 145 c38 -77 70 -142 70 -144 0 -5 -733 -370 -1008 -502 l-152
-73 -73 146 c-39 80 -67 147 -62 150 6 2 264 129 575 283 311 154 568 280 572
280 5 0 39 -63 78 -140z m-25974 -1297 l560 -278 -68 -142 c-37 -79 -73 -143
-79 -143 -7 0 -1117 543 -1157 566 -2 1 30 67 69 147 66 131 75 144 93 137 12
-5 273 -134 582 -287z m23659 148 c38 -77 67 -142 65 -145 -3 -2 -264 -132
-581 -289 l-577 -284 -71 145 c-40 79 -70 146 -68 148 9 9 1153 571 1157 569
3 -2 36 -66 75 -144z m-21353 -1287 c312 -153 567 -283 568 -289 0 -14 -132
-285 -140 -285 -11 0 -1160 570 -1160 576 0 2 32 68 70 145 42 83 76 139 83
136 7 -2 267 -129 579 -283z m19035 142 l72 -143 -572 -283 c-315 -155 -577
-284 -584 -287 -12 -5 -36 37 -109 195 l-43 93 572 284 c315 156 577 284 582
284 6 1 43 -64 82 -143z m-16189 -1549 c23 -12 42 -25 42 -29 0 -5 -32 -71
-70 -148 l-70 -140 -138 68 c-75 38 -336 167 -579 287 -244 120 -443 222 -443
227 0 5 31 71 70 148 l70 139 537 -265 c296 -146 557 -275 581 -287z m13940
258 c-2 -1 -264 -131 -583 -289 l-580 -286 -73 146 c-40 80 -72 147 -70 149 2
2 140 71 308 153 168 83 429 211 580 286 l275 136 73 -146 c40 -80 72 -147 70
-149z m-12155 -1140 c318 -157 577 -287 577 -290 0 -11 -140 -285 -146 -285
-18 0 -1154 570 -1154 579 0 15 133 281 141 281 3 0 265 -128 582 -285z m9767
145 c38 -77 70 -142 70 -145 0 -6 -1147 -575 -1159 -575 -3 0 -39 65 -79 146
l-72 145 142 68 c79 38 339 166 578 285 239 119 438 216 442 216 5 0 39 -63
78 -140z m-7749 -1141 c156 -78 416 -206 578 -285 162 -80 296 -146 298 -148
3 -3 -132 -283 -141 -294 -2 -2 -1156 566 -1164 573 -3 2 140 295 144 295 1 0
129 -64 285 -141z m5429 1 c38 -77 70 -143 70 -148 0 -4 -190 -102 -422 -217
-233 -115 -494 -244 -581 -287 l-157 -78 -72 144 c-40 80 -70 148 -67 151 5 4
1149 573 1156 574 2 1 34 -62 73 -139z m-3139 -1132 l251 -122 248 124 c137
68 251 122 253 120 12 -13 137 -271 137 -282 -1 -7 -145 -84 -322 -171 l-322
-158 -323 160 c-178 88 -323 163 -323 166 0 10 140 285 145 285 3 0 118 -55
256 -122z"/>
</g>
</svg>
